<?xml version="1.0" encoding="UTF-8"?>
<svg version="1.1" xmlns="http://www.w3.org/2000/svg" width="76" height="54">
<path d="M0 0 C25.08 0 50.16 0 76 0 C76 17.82 76 35.64 76 54 C50.92 54 25.84 54 0 54 C0 36.18 0 18.36 0 0 Z " fill="#FBFDFD" transform="translate(0,0)"/>
<path d="M0 0 C4.24994263 -0.05805933 8.49978324 -0.09361654 12.75 -0.125 C13.9565625 -0.14175781 15.163125 -0.15851562 16.40625 -0.17578125 C17.56640625 -0.18222656 18.7265625 -0.18867188 19.921875 -0.1953125 C20.99018555 -0.20578613 22.05849609 -0.21625977 23.15917969 -0.22705078 C26.00744785 0.00059526 27.64205725 0.41491546 30 2 C30.75 4.125 30.75 4.125 31 6 C31.99 5.67 32.98 5.34 34 5 C38.8303313 10.5734592 40.36845303 14.01452728 40.28125 21.4921875 C39.86460293 25.20729058 38.47744601 27.25472199 36 30 C30.93853001 33.49482451 27.42934966 34.13510751 21.375 34.0625 C20.66859375 34.05798828 19.9621875 34.05347656 19.234375 34.04882812 C17.48954725 34.03703875 15.744763 34.01910324 14 34 C14 33.34 14 32.68 14 32 C9.545 32.495 9.545 32.495 5 33 C5 32.34 5 31.68 5 31 C4.01 30.67 3.02 30.34 2 30 C1.505 27.525 1.505 27.525 1 25 C0.01 27.64 -0.98 30.28 -2 33 C-3.65 33 -5.3 33 -7 33 C-7 32.34 -7 31.68 -7 31 C-7.66 31 -8.32 31 -9 31 C-9 30.34 -9 29.68 -9 29 C-9.66 29 -10.32 29 -11 29 C-11.66 27.02 -12.32 25.04 -13 23 C-13.33 26.3 -13.66 29.6 -14 33 C-15.65 33 -17.3 33 -19 33 C-19.5534764 30.92446352 -20 29.15634036 -20 27 C-20.99 27 -21.98 27 -23 27 C-23 18.42 -23 9.84 -23 1 C-15 1 -15 1 -12.640625 2.640625 C-10.80533875 5.27994141 -9.76582334 7.70252998 -8.75 10.75 C-8.41484375 11.73484375 -8.0796875 12.7196875 -7.734375 13.734375 C-7.37085938 14.85585938 -7.37085938 14.85585938 -7 16 C-6.61908203 15.02160156 -6.61908203 15.02160156 -6.23046875 14.0234375 C-5.88628906 13.14945313 -5.54210937 12.27546875 -5.1875 11.375 C-4.85105469 10.51648437 -4.51460937 9.65796875 -4.16796875 8.7734375 C-2.90596954 5.77671698 -1.48091596 2.89393893 0 0 Z " fill="#41B0F0" transform="translate(32,12)"/>
<path d="M0 0 C0.66 0 1.32 0 2 0 C2 7.59 2 15.18 2 23 C2.66 23 3.32 23 4 23 C4 23.66 4 24.32 4 25 C15.41593137 25.67132431 15.41593137 25.67132431 26 22 C28.91272715 17.14545475 28.62245165 10.58374143 29 5 C31.84000604 9.26000905 31.63091437 12.99941947 31 18 C28.37471627 23.34780019 25.16501328 25.41749336 20 28 C17.44842345 28.0716735 14.92527029 28.09308442 12.375 28.0625 C11.66859375 28.05798828 10.9621875 28.05347656 10.234375 28.04882812 C8.48954725 28.03703875 6.744763 28.01910324 5 28 C5 27.34 5 26.68 5 26 C2.03 26.33 -0.94 26.66 -4 27 C-4 26.34 -4 25.68 -4 25 C-2.68 25 -1.36 25 0 25 C0 16.75 0 8.5 0 0 Z " fill="#BBC3C7" transform="translate(41,18)"/>
<path d="M0 0 C6.93359375 -0.09765625 6.93359375 -0.09765625 9 0 C10.57027317 1.57027317 10.16974386 3.14269947 10.1875 5.3125 C10.20167969 6.09238281 10.21585938 6.87226563 10.23046875 7.67578125 C9.97610509 10.24097411 9.35147688 11.81757974 8 14 C5.00711009 15.99525994 3.76914404 16 0 16 C0 10.72 0 5.44 0 0 Z " fill="#F4F9FA" transform="translate(52,21)"/>
<path d="M0 0 C2.36145492 1.81794545 2.95669696 2.70579408 3.3984375 5.70703125 C3.316682 16.53963455 3.316682 16.53963455 0 21 C-4.71704284 24.50754468 -8.85158837 25.14056176 -14.625 25.125 C-16.06746094 25.12886719 -16.06746094 25.12886719 -17.5390625 25.1328125 C-20 25 -20 25 -22 24 C-22 23.34 -22 22.68 -22 22 C-20.46279297 21.94392578 -20.46279297 21.94392578 -18.89453125 21.88671875 C-17.53381938 21.82102921 -16.17314389 21.75458291 -14.8125 21.6875 C-13.80219727 21.65366211 -13.80219727 21.65366211 -12.77148438 21.61914062 C-8.40608713 21.3848998 -5.39597301 20.81238715 -2 18 C0.24270696 14.11219363 0.21432131 10.608905 0.125 6.1875 C0.09792969 4.44533203 0.09792969 4.44533203 0.0703125 2.66796875 C0.04710938 1.78753906 0.02390625 0.90710938 0 0 Z " fill="#5F6568" transform="translate(67,19)"/>
<path d="M0 0 C2.84000604 4.26000905 2.63091437 7.99941947 2 13 C-0.22098634 17.52423143 -2.46816632 19.86954558 -7 22 C-9.85672736 22.20984775 -12.47201222 22.28649823 -15.3125 22.1875 C-16.42334961 22.16719727 -16.42334961 22.16719727 -17.55664062 22.14648438 C-19.37141075 22.11135979 -21.18580288 22.05755972 -23 22 C-23 21.67 -23 21.34 -23 21 C-21.97519531 20.87882812 -20.95039062 20.75765625 -19.89453125 20.6328125 C-18.53381021 20.46389541 -17.1731355 20.2946048 -15.8125 20.125 C-15.13896484 20.04636719 -14.46542969 19.96773437 -13.77148438 19.88671875 C-9.91331181 19.39738955 -6.47026908 18.79675614 -3 17 C-0.34086191 11.81468073 -0.38735199 5.72873213 0 0 Z " fill="#AFAFAF" transform="translate(70,23)"/>
<path d="M0 0 C0.33 0 0.66 0 1 0 C1.29838438 4.98072393 0.29827033 8.65591502 -1.4375 13.3125 C-1.88996094 14.54613281 -2.34242187 15.77976562 -2.80859375 17.05078125 C-4 20 -4 20 -5 21 C-6.66617115 21.04063832 -8.33388095 21.042721 -10 21 C-10 20.34 -10 19.68 -10 19 C-8.68 19 -7.36 19 -6 19 C-5.7525 17.72125 -5.505 16.4425 -5.25 15.125 C-4.08835439 9.830253 -2.13659734 4.96810741 0 0 Z " fill="#5A6972" transform="translate(33,22)"/>
<path d="M0 0 C2.64 0 5.28 0 8 0 C8.66 0.66 9.32 1.32 10 2 C7.36 2 4.72 2 2 2 C2 7.61 2 13.22 2 19 C1.34 19 0.68 19 0 19 C0 12.73 0 6.46 0 0 Z " fill="#666868" transform="translate(49,17)"/>
<path d="M0 0 C0.66 0.33 1.32 0.66 2 1 C2 7.6 2 14.2 2 21 C0.68 21 -0.64 21 -2 21 C-2 20.34 -2 19.68 -2 19 C-1.34 19 -0.68 19 0 19 C0 12.73 0 6.46 0 0 Z " fill="#546F7F" transform="translate(14,22)"/>
<path d="M0 0 C0.66 0 1.32 0 2 0 C5.46626017 6.62964323 8.36540529 12.32648896 8 20 C5.44679681 18.7233984 5.41037912 17.90007922 4.4921875 15.25390625 C4.22792969 14.49916016 3.96367187 13.74441406 3.69140625 12.96679688 C3.42199219 12.17337891 3.15257812 11.37996094 2.875 10.5625 C2.59785156 9.77294922 2.32070313 8.98339844 2.03515625 8.16992188 C0 2.29002463 0 2.29002463 0 0 Z " fill="#8C959A" transform="translate(17,14)"/>
<path d="M0 0 C2.52775351 3.79163027 2.22443035 6.80874031 2.125 11.1875 C2.11597656 11.93708984 2.10695313 12.68667969 2.09765625 13.45898438 C2.07412578 15.30612654 2.03825561 17.15310412 2 19 C0.35 19 -1.3 19 -3 19 C-3 18.34 -3 17.68 -3 17 C-2.01 17 -1.02 17 0 17 C0 11.39 0 5.78 0 0 Z " fill="#A2A8AC" transform="translate(16,26)"/>
<path d="M0 0 C4.95 0 9.9 0 15 0 C15 0.66 15 1.32 15 2 C12.39080172 3.30459914 10.41057385 3.1326594 7.5 3.125 C6.5203125 3.12757812 5.540625 3.13015625 4.53125 3.1328125 C2 3 2 3 0 2 C0 1.34 0 0.68 0 0 Z " fill="#60737D" transform="translate(45,41)"/>
<path d="M0 0 C0.33 0 0.66 0 1 0 C1.36263859 5.8022175 0.25684543 9.63999211 -2 15 C-3.65 15 -5.3 15 -7 15 C-7 14.34 -7 13.68 -7 13 C-6.01 12.67 -5.02 12.34 -4 12 C-2.74674715 9.21473551 -2.74674715 9.21473551 -1.8125 5.9375 C-1.46832031 4.83277344 -1.12414062 3.72804687 -0.76953125 2.58984375 C-0.51558594 1.73519531 -0.26164062 0.88054688 0 0 Z " fill="#ABABAB" transform="translate(32,30)"/>
<path d="M0 0 C0.33 0 0.66 0 1 0 C1.02505615 0.61520508 1.0501123 1.23041016 1.07592773 1.86425781 C1.19218487 4.65970156 1.31477642 7.45483298 1.4375 10.25 C1.47681641 11.21808594 1.51613281 12.18617187 1.55664062 13.18359375 C1.59853516 14.11816406 1.64042969 15.05273438 1.68359375 16.015625 C1.72025146 16.87446289 1.75690918 17.73330078 1.79467773 18.61816406 C1.98703514 20.84960143 2.38846244 22.84982524 3 25 C2.01 25.33 1.02 25.66 0 26 C0 17.42 0 8.84 0 0 Z " fill="#5AC1FD" transform="translate(9,13)"/>
<path d="M0 0 C2.16721782 3.25082673 2.27221018 4.29232153 2.25 8.0625 C2.25515625 8.94035156 2.2603125 9.81820312 2.265625 10.72265625 C2 13 2 13 0 15 C-1.09651823 11.58860997 -0.94215473 8.79344419 -0.5625 5.25 C-0.46066406 4.26515625 -0.35882813 3.2803125 -0.25390625 2.265625 C-0.17011719 1.51796875 -0.08632812 0.7703125 0 0 Z " fill="#BBBBBB" transform="translate(70,23)"/>
<path d="M0 0 C0.33 0 0.66 0 1 0 C1.34833144 4.87664009 0.41685712 7.77050005 -2 12 C-2.33 12 -2.66 12 -3 12 C-2.14285714 3.42857143 -2.14285714 3.42857143 0 0 Z " fill="#516E7D" transform="translate(33,22)"/>
<path d="M0 0 C2.4375 0.625 2.4375 0.625 5 2 C5.8125 5.125 5.8125 5.125 6 8 C5.67 7.34 5.34 6.68 5 6 C4.34 6 3.68 6 3 6 C1.61767557 4.37373596 0.28062485 2.7074998 -1 1 C-0.67 0.67 -0.34 0.34 0 0 Z " fill="#48B4F2" transform="translate(58,16)"/>
<path d="M0 0 C0.66 0 1.32 0 2 0 C4.02350324 3.03525486 4.32124018 4.19426202 4.625 7.6875 C4.69976563 8.49574219 4.77453125 9.30398437 4.8515625 10.13671875 C4.92503906 11.05904297 4.92503906 11.05904297 5 12 C2.65085508 9.65085508 2.26859643 8.04320554 1.375 4.875 C1.11460938 3.96492188 0.85421875 3.05484375 0.5859375 2.1171875 C0.39257812 1.41851562 0.19921875 0.71984375 0 0 Z " fill="#707E85" transform="translate(17,14)"/>
<path d="M0 0 C0.86625 0.556875 0.86625 0.556875 1.75 1.125 C-0.25 3.125 -0.25 3.125 -3.25 5.125 C-4.24 3.805 -5.23 2.485 -6.25 1.125 C-2.80384615 -1.09038462 -2.80384615 -1.09038462 0 0 Z " fill="#EFF5F9" transform="translate(66.25,14.875)"/>
</svg>
